<mxfile host="app.diagrams.net" modified="2023-04-25T13:56:40.758Z" agent="Mozilla/5.0 (X11; Linux x86_64) AppleWebKit/537.36 (KHTML, like Gecko) Chrome/112.0.0.0 Safari/537.36" etag="Snct5FKPGarJ7hwnIfME" version="21.2.1" type="device">
  <diagram name="Page-1" id="uKdp5u8W4GyLi4Dxr-j6">
    <mxGraphModel dx="2010" dy="1162" grid="1" gridSize="10" guides="1" tooltips="1" connect="1" arrows="1" fold="1" page="1" pageScale="1" pageWidth="827" pageHeight="1169" math="0" shadow="0">
      <root>
        <mxCell id="0" />
        <mxCell id="1" parent="0" />
        <mxCell id="X_HvvK2fznBESPmppBxW-1" value="&lt;font style=&quot;font-size: 24px;&quot;&gt;&lt;b style=&quot;&quot;&gt;COMPONENT TREE&lt;/b&gt;&lt;/font&gt;" style="text;html=1;align=center;verticalAlign=middle;resizable=0;points=[];autosize=1;strokeColor=none;fillColor=none;" vertex="1" parent="1">
          <mxGeometry x="620" y="10" width="250" height="40" as="geometry" />
        </mxCell>
        <mxCell id="X_HvvK2fznBESPmppBxW-3" value="&lt;font style=&quot;font-size: 24px;&quot;&gt;App&lt;/font&gt;" style="rounded=1;whiteSpace=wrap;html=1;" vertex="1" parent="1">
          <mxGeometry x="675" y="110" width="120" height="60" as="geometry" />
        </mxCell>
        <mxCell id="X_HvvK2fznBESPmppBxW-5" value="&lt;font style=&quot;font-size: 24px;&quot;&gt;Button&lt;/font&gt;" style="rounded=1;whiteSpace=wrap;html=1;" vertex="1" parent="1">
          <mxGeometry x="1420" y="410" width="166" height="70" as="geometry" />
        </mxCell>
        <mxCell id="X_HvvK2fznBESPmppBxW-6" value="&lt;font style=&quot;font-size: 24px;&quot;&gt;Navigation Bar&lt;/font&gt;" style="rounded=1;whiteSpace=wrap;html=1;" vertex="1" parent="1">
          <mxGeometry x="50" y="280" width="120" height="60" as="geometry" />
        </mxCell>
        <mxCell id="X_HvvK2fznBESPmppBxW-7" value="" style="shape=flexArrow;endArrow=classic;html=1;rounded=0;width=18;endSize=7.44;" edge="1" parent="1">
          <mxGeometry width="50" height="50" relative="1" as="geometry">
            <mxPoint x="109" y="350" as="sourcePoint" />
            <mxPoint x="109" y="450" as="targetPoint" />
          </mxGeometry>
        </mxCell>
        <mxCell id="X_HvvK2fznBESPmppBxW-9" value="" style="shape=flexArrow;endArrow=classic;html=1;rounded=0;width=18;endSize=7.44;" edge="1" parent="1">
          <mxGeometry width="50" height="50" relative="1" as="geometry">
            <mxPoint x="650" y="170" as="sourcePoint" />
            <mxPoint x="150" y="270" as="targetPoint" />
          </mxGeometry>
        </mxCell>
        <mxCell id="X_HvvK2fznBESPmppBxW-10" value="Home" style="rounded=1;whiteSpace=wrap;html=1;" vertex="1" parent="1">
          <mxGeometry x="10" y="460" width="90" height="60" as="geometry" />
        </mxCell>
        <mxCell id="X_HvvK2fznBESPmppBxW-11" value="Quiz" style="rounded=1;whiteSpace=wrap;html=1;" vertex="1" parent="1">
          <mxGeometry x="110" y="460" width="80" height="60" as="geometry" />
        </mxCell>
        <mxCell id="X_HvvK2fznBESPmppBxW-12" value="Search" style="rounded=1;whiteSpace=wrap;html=1;" vertex="1" parent="1">
          <mxGeometry x="10" y="530" width="90" height="60" as="geometry" />
        </mxCell>
        <mxCell id="X_HvvK2fznBESPmppBxW-13" value="Links" style="rounded=1;whiteSpace=wrap;html=1;" vertex="1" parent="1">
          <mxGeometry x="110" y="530" width="80" height="60" as="geometry" />
        </mxCell>
        <mxCell id="X_HvvK2fznBESPmppBxW-14" value="&lt;font style=&quot;font-size: 24px;&quot;&gt;Side Bar Component&lt;/font&gt;" style="rounded=1;whiteSpace=wrap;html=1;" vertex="1" parent="1">
          <mxGeometry x="640" y="290" width="190" height="90" as="geometry" />
        </mxCell>
        <mxCell id="X_HvvK2fznBESPmppBxW-15" value="" style="shape=flexArrow;endArrow=classic;html=1;rounded=0;width=18;endSize=7.44;" edge="1" parent="1">
          <mxGeometry width="50" height="50" relative="1" as="geometry">
            <mxPoint x="734.5" y="380" as="sourcePoint" />
            <mxPoint x="735" y="470" as="targetPoint" />
          </mxGeometry>
        </mxCell>
        <mxCell id="X_HvvK2fznBESPmppBxW-16" value="" style="shape=flexArrow;endArrow=classic;html=1;rounded=0;width=10;endSize=14.32;" edge="1" parent="1">
          <mxGeometry width="50" height="50" relative="1" as="geometry">
            <mxPoint x="734.5" y="190" as="sourcePoint" />
            <mxPoint x="735" y="280" as="targetPoint" />
          </mxGeometry>
        </mxCell>
        <mxCell id="X_HvvK2fznBESPmppBxW-17" value="Login" style="rounded=1;whiteSpace=wrap;html=1;" vertex="1" parent="1">
          <mxGeometry x="200" y="460" width="80" height="60" as="geometry" />
        </mxCell>
        <mxCell id="X_HvvK2fznBESPmppBxW-25" value="QUIZ 1" style="whiteSpace=wrap;html=1;rounded=1;" vertex="1" parent="1">
          <mxGeometry x="520" y="500" width="120" height="60" as="geometry" />
        </mxCell>
        <mxCell id="X_HvvK2fznBESPmppBxW-27" value="QUIZ 2" style="whiteSpace=wrap;html=1;rounded=1;" vertex="1" parent="1">
          <mxGeometry x="675" y="500" width="120" height="60" as="geometry" />
        </mxCell>
        <mxCell id="X_HvvK2fznBESPmppBxW-28" value="QUIZ 3" style="whiteSpace=wrap;html=1;rounded=1;" vertex="1" parent="1">
          <mxGeometry x="827" y="500" width="120" height="60" as="geometry" />
        </mxCell>
        <mxCell id="X_HvvK2fznBESPmppBxW-30" value="Static Quiz Image" style="ellipse;whiteSpace=wrap;html=1;" vertex="1" parent="1">
          <mxGeometry x="835" y="160" width="150" height="100" as="geometry" />
        </mxCell>
        <mxCell id="X_HvvK2fznBESPmppBxW-32" value="INSIDE THE APP" style="text;html=1;align=center;verticalAlign=middle;resizable=0;points=[];autosize=1;strokeColor=none;fillColor=none;" vertex="1" parent="1">
          <mxGeometry x="850" y="220" width="120" height="30" as="geometry" />
        </mxCell>
      </root>
    </mxGraphModel>
  </diagram>
</mxfile>
